<svg width="512" height="512" viewBox="0 0 512 512" fill="none" xmlns="http://www.w3.org/2000/svg">
<path d="M234.625 260.625C234.625 257.625 234.417 243.896 234 219.438C233.875 218.479 233.375 217.667 232.5 217C231.667 216.292 230.438 215.75 228.812 215.375C227.188 215 225.854 214.729 224.812 214.562C223.812 214.396 222.396 214.229 220.562 214.062C220.396 213.312 220.312 212.792 220.312 212.5C220.312 212.25 220.396 211.792 220.562 211.125C221.646 211.167 224.229 211.271 228.312 211.438C232.396 211.562 235.542 211.625 237.75 211.625C239.625 211.625 243.167 211.542 248.375 211.375C253.583 211.208 257.333 211.125 259.625 211.125C270.292 211.125 278.438 213.604 284.062 218.562C289.688 223.521 292.5 230.125 292.5 238.375C292.5 246.208 289.979 252.604 284.938 257.562C279.896 262.521 272.729 265 263.438 265C257.854 265 252.833 263.833 248.375 261.5C248.375 271.667 248.5 282.646 248.75 294.438C248.792 295.521 249.271 296.458 250.188 297.25C251.104 298 252.417 298.583 254.125 299C255.875 299.417 257.333 299.729 258.5 299.938C259.708 300.104 261.271 300.271 263.188 300.438C263.354 301.271 263.438 301.833 263.438 302.125C263.438 302.458 263.354 302.875 263.188 303.375C256.104 303.125 248.854 303 241.438 303C233.938 303 226.688 303.125 219.688 303.375C219.521 302.875 219.438 302.458 219.438 302.125C219.438 301.417 219.521 300.854 219.688 300.438C221.604 300.271 223.146 300.104 224.312 299.938C225.521 299.729 226.979 299.417 228.688 299C230.438 298.583 231.771 298 232.688 297.25C233.604 296.458 234.083 295.521 234.125 294.438C234.458 283.729 234.625 272.458 234.625 260.625ZM248.75 215.438C248.5 230.438 248.375 244.396 248.375 257.312C251.792 258.854 255.188 259.625 258.562 259.625C264.438 259.625 268.854 257.729 271.812 253.938C274.771 250.146 276.25 244.917 276.25 238.25C276.25 222.875 268.646 215.188 253.438 215.188C252.479 215.188 250.917 215.271 248.75 215.438Z" fill="black"/>
</svg>
